<svg xmlns="http://www.w3.org/2000/svg" width="430" height="500" viewBox="0 0 430 500">
    <defs>
        <linearGradient id="t1iqd0i4ya" x1="-16.747%" x2="54.442%" y1="80.239%" y2="56.412%">
            <stop offset="21%" stop-color="#FFF" stop-opacity="0"/>
            <stop offset="100%" stop-color="#FFF" stop-opacity=".2"/>
        </linearGradient>
    </defs>
    <g fill="none" fill-rule="evenodd">
        <g fill-rule="nonzero">
            <g transform="translate(-788 -169) translate(788 169)">
                <path fill="#D6D8E5" d="M167.55 279.29L132.92 259.41 170.07 237.97 204.7 257.85z" opacity=".4"/>
                <path fill="#EFDA86" d="M171.43 234.65L134.29 213.2 171.43 191.75 208.58 213.2z"/>
                <path fill="#D1B66B" d="M206.07 257.04L171.43 277.04 171.43 237.04 206.07 217.05z"/>
                <path fill="#E2C979" d="M171.43 277.04L136.8 257.04 136.8 217.05 171.43 237.04z"/>
                <path fill="#000" d="M136.8 217.05L136.8 227.51 171.43 247.28 171.43 237.09zM206.07 217.05L206.07 228.26 171.43 247.28 171.43 237.09z" opacity=".1"/>
                <path fill="#E2C979" d="M134.29 213.2L134.29 224.29 171.43 245.45 171.43 234.65z"/>
                <path fill="#D1B66B" d="M171.43 245.45L208.58 225.16 208.58 213.2 171.43 234.65z"/>
                <path fill="#2F5867" d="M307 370l-110.72-63.76c-1.292-.749-2.073-2.142-2.039-3.635.037-1.493.883-2.848 2.209-3.535l13.93-7.18c1.235-.632 2.705-.598 3.91.09l114.45 65.9c1.298.745 2.084 2.14 2.05 3.636-.037 1.495-.888 2.852-2.22 3.534l-10.11 5.21c-3.615 1.873-7.934 1.775-11.46-.26z" opacity=".4"/>
                <path fill="#B1B4C4" d="M313.8 358l-94.36-54.48c-8-4.61-14.47-17-14.47-27.65V12.68C205 2 211.45-2.88 219.44 1.74l94.36 54.47c8 4.62 14.47 17 14.47 27.65v263.2c0 10.66-6.48 15.55-14.47 10.94z"/>
                <path fill="#B1B4C4" d="M315.42 362.74L322.89 358.96 315.72 346.67zM203.51 4.36L210.39.75 209 10.9z"/>
                <path fill="#616E84" d="M307.78 361l-94.35-54.48c-8-4.61-14.47-17-14.47-27.65V15.69C199 5 205.44.13 213.43 4.74l94.35 54.48c8 4.62 14.48 17 14.48 27.65v263.2c0 10.65-6.48 15.55-14.48 10.93z"/>
                <path fill="#20232D" d="M321.25 87.54v263.19c0 10.67-6.47 15.56-14.47 10.95l-37-21.36-11.51-6.65-45.85-26.47c-8-4.62-14.46-17-14.46-27.65V16.36C198 5.69 204.43.8 212.42 5.41l94.36 54.48c8 4.62 14.47 16.99 14.47 27.65z"/>
                <path fill="#FFF" d="M314.44 84.87v256.34c0 6.46-4.53 9.08-10.11 5.84l-5-2.9-17.14-9.89-7.37-4.26-2.6-1.51-.87-.51-6.35-3.65-18.45-10.64-7.6-4.39-3.08-1.78-18.4-10.62-2.51-1.45c-5.6-3.23-10.12-11.08-10.12-17.55V21.54c0-6.46 4.52-9.08 10.12-5.85L251.72 37v.1c.299 5.55 3.226 10.623 7.88 13.66 4.36 2.5 7.89.47 7.89-4.55v-.11l36.85 21.27c5.57 3.19 10.1 11.04 10.1 17.5z"/>
                <ellipse cx="260.632" cy="44.588" fill="#2B303F" rx="2.448" ry="4.245" transform="rotate(-29.887 260.632 44.588)"/>
                <path fill="#FFF" d="M259.6 45.85c-.739-.483-1.203-1.289-1.25-2.17 0-.8.56-1.12 1.25-.72.745.478 1.214 1.286 1.26 2.17 0 .8-.56 1.12-1.26.72z" opacity=".1"/>
                <path fill="#757B89" d="M325.08 122.17c-.77.45-1.39 0-1.39-1V109.9c.013-1.057.53-2.045 1.39-2.66.77-.45 1.39 0 1.39 1.05v11.22c-.013 1.057-.53 2.045-1.39 2.66zM325.08 140.56c-.77.44-1.39 0-1.39-1.05v-11.23c.018-1.056.533-2.042 1.39-2.66.77-.44 1.39 0 1.39 1.06v11.22c-.015 1.057-.53 2.044-1.39 2.66z"/>
                <path fill="#E9EAF2" d="M293.84 172.51l-71-41c-3-1.74-5.46-6.41-5.46-10.44v-80c0-4 2.44-5.87 5.46-4.13l71 41c3 1.74 5.46 6.41 5.46 10.43v80c0 4.03-2.44 5.88-5.46 4.14zM293.84 279.56l-71-41c-3-1.74-5.46-6.41-5.46-10.43v-80c0-4 2.44-5.87 5.46-4.13l71 41c3 1.74 5.46 6.41 5.46 10.44v80c0 4.01-2.44 5.86-5.46 4.12zM299.31 302.46v41.69L274.82 330l-2.6-1.51-.87-.51-6.35-3.65-18.45-10.64-7.65-4.41-3.08-1.78-18.4-10.62v-41.7c0-4 2.45-5.86 5.46-4.12l71 41c2.98 1.71 5.43 6.38 5.43 10.4z"/>
                <path fill="#D9DAE2" d="M279.71 106.47L270 89.64c-.369-.67-.902-1.234-1.55-1.64-.086-.051-.176-.095-.27-.13-.089-.067-.182-.127-.28-.18l-2.7-1.56c-.74-.43-1.43-.4-1.83.09-.86 1-2.8.91-4.94-.33-2.155-1.246-3.878-3.119-4.94-5.37-.364-.913-1.008-1.687-1.84-2.21L249 76.76c-.086-.054-.176-.101-.27-.14-.49-.457-1.201-.586-1.82-.33l-9.71 5.61c-.86.5-.86 2.09 0 3.57l5.31 9.2c.353.662.865 1.225 1.49 1.64.453.323 1.044.38 1.55.15l1.22-.71v22.5c.109 1.532.936 2.923 2.23 3.75l18.9 11c1.21.7 2.18.13 2.18-1.26v-22.5l1.23 2.12c.365.667.895 1.228 1.54 1.63.453.323 1.044.38 1.55.15l5.31-3.07c.85-.53.85-2.07 0-3.6zM275.6 209.26l-34.35-19.83c-.908 2.946-1.39 6.007-1.43 9.09V220l15.74 9.09 2.87-16.52 2.86 19.83 15.71 9.09V220c-.076-3.62-.546-7.221-1.4-10.74zM275.6 202.65L241.25 182.82 241.25 187.78 275.6 207.61zM282.17 334.26l-7.35-4.26-2.6-1.51-.87-.51-6.35-3.65-18.45-10.64-7.6-4.39v-10.56c0-1.05.73-1.48 1.65-1 .709.479 1.234 1.184 1.49 2l.31 1c1.043 3.267 3.184 6.072 6.06 7.94 3.67 2.12 6.67.39 6.67-3.86v-1.28c0-1.3.92-1.85 2-1.19.533.328.982.777 1.31 1.31l2.93 4.49-3.3 1.85 1.83 3.14 3.46-2 1.5 2.31-3.15 1.82 1.81 3.15 3.33-1.92 1.5 2.31-3 1.74 1.81 3.15 3.19-1.84c1.86 2.737 4.275 5.05 7.09 6.79l.58.32c1.925 1.261 3.383 3.12 4.15 5.29z"/>
                <path fill="#000" d="M305.41 98.86L216.76 48 216.76 16.59 305.41 67.44z" opacity=".1"/>
                <path fill="#E26161" d="M198.5 45.32L187.58 39.01 217.07 16.95 227.99 23.25z"/>
                <path fill="#F4F5F9" d="M209.43 51.62L198.5 45.32 227.99 23.25 238.91 29.56z"/>
                <path fill="#E26161" d="M220.35 57.93L209.43 51.62 238.91 29.56 249.83 35.86z"/>
                <path fill="#F4F5F9" d="M231.27 64.23L220.35 57.93 249.83 35.86 260.75 42.17z"/>
                <path fill="#E26161" d="M242.19 70.54L231.27 64.23 260.75 42.17 271.67 48.47z"/>
                <path fill="#F4F5F9" d="M253.11 76.84L242.19 70.54 271.67 48.47 282.59 54.78z"/>
                <path fill="#E26161" d="M264.03 83.15L253.11 76.84 282.59 54.78 293.51 61.08z"/>
                <path fill="#F4F5F9" d="M274.95 89.45L264.03 83.15 293.51 61.08 304.44 67.39z"/>
                <path fill="#E26161" d="M193.12 48.39c3 1.74 5.46.33 5.46-3.15l-10.92-6.31c.21 3.843 2.238 7.355 5.46 9.46z"/>
                <path fill="#F4F5F9" d="M204.05 54.69c3 1.75 5.46.33 5.46-3.15l-10.93-6.3c.211 3.842 2.243 7.353 5.47 9.45z"/>
                <path fill="#E26161" d="M215 61c3 1.74 5.46.33 5.46-3.15l-10.92-6.31c.206 3.844 2.234 7.359 5.46 9.46z"/>
                <path fill="#F4F5F9" d="M225.89 67.31c3 1.74 5.46.32 5.46-3.16l-10.92-6.3c.21 3.843 2.237 7.357 5.46 9.46z"/>
                <path fill="#E26161" d="M236.81 73.61c3 1.74 5.46.33 5.46-3.15l-10.92-6.31c.206 3.844 2.234 7.359 5.46 9.46z"/>
                <path fill="#F4F5F9" d="M247.73 79.92c3 1.74 5.46.33 5.46-3.16l-10.92-6.3c.21 3.843 2.237 7.357 5.46 9.46z"/>
                <path fill="#E26161" d="M258.65 86.22c3 1.74 5.46.33 5.46-3.15l-10.92-6.31c.196 3.847 2.227 7.366 5.46 9.46z"/>
                <path fill="#F4F5F9" d="M269.57 92.53c3 1.74 5.46.33 5.46-3.16l-10.92-6.3c.21 3.843 2.237 7.357 5.46 9.46z"/>
                <g fill="#000" opacity=".15">
                    <path d="M6.12 10.39c3 1.74 5.46.33 5.46-3.15L.66.93c.21 3.843 2.238 7.355 5.46 9.46zM17.05 16.69c3 1.75 5.46.33 5.46-3.15l-10.93-6.3c.211 3.842 2.243 7.353 5.47 9.45zM28 23c3 1.74 5.46.33 5.46-3.15l-10.92-6.31c.206 3.844 2.234 7.359 5.46 9.46z" transform="translate(187 38)"/>
                    <path d="M38.89 29.31c3 1.74 5.46.32 5.46-3.16l-10.92-6.3c.21 3.843 2.237 7.357 5.46 9.46zM49.81 35.61c3 1.74 5.46.33 5.46-3.15l-10.92-6.31c.206 3.844 2.234 7.359 5.46 9.46z" transform="translate(187 38)"/>
                    <path d="M60.73 41.92c3 1.74 5.46.33 5.46-3.16l-10.92-6.3c.21 3.843 2.237 7.357 5.46 9.46zM71.65 48.22c3 1.74 5.46.33 5.46-3.15l-10.92-6.31c.196 3.847 2.227 7.366 5.46 9.46z" transform="translate(187 38)"/>
                    <path d="M82.57 54.53c3 1.74 5.46.33 5.46-3.16l-10.92-6.3c.21 3.843 2.237 7.357 5.46 9.46z" transform="translate(187 38)"/>
                </g>
                <path fill="#2F5867" d="M380.78 394.51L341.29 371.71 346.24 368.84 385.74 391.63z" opacity=".4"/>
                <path fill="#C65555" d="M396.04 385.91L356.39 363.01 361.35 317.79 391.09 334.96z"/>
                <path fill="#FF6C6C" d="M385.74 391.63L346.08 368.74 351.04 323.52 380.78 340.69z"/>
                <path fill="#DD6262" d="M385.74 391.63L396.04 385.91 391.09 334.96 380.78 340.69z"/>
                <path fill="#C65555" d="M351.04 323.52L361.35 317.79 360.14 328.77z"/>
                <path fill="#20232D" d="M373.34 336.29l-1.83-1.06c0-4.27-2.51-9.19-5.6-11-3.09-1.81-5.59.24-5.59 4.51l-1.84-1.06c0-5.43 3.34-7.93 7.43-5.57 4.09 2.36 7.43 8.75 7.43 14.18zM383 330.38l-1.83-1.06c0-4.27-2.51-9.19-5.6-11-3.09-1.81-5.59.24-5.59 4.51l-1.84-1.06c0-5.43 3.34-7.93 7.43-5.57 4.09 2.36 7.43 8.8 7.43 14.18z"/>
                <path fill="#2F5867" d="M345.26 423.43L288.36 390.6 295.5 386.45 352.4 419.29z" opacity=".4"/>
                <path fill="#C65555" d="M367.24 411.04L310.12 378.06 317.26 312.92 360.1 337.66z"/>
                <path fill="#FF6C6C" d="M352.4 419.29L295.27 386.31 302.41 321.17 345.26 345.9z"/>
                <path fill="#DD6262" d="M352.4 419.29L367.24 411.04 360.1 337.66 345.26 345.9z"/>
                <path fill="#C65555" d="M302.41 321.17L317.26 312.92 315.52 328.74z"/>
                <path fill="#20232D" d="M334.54 339.57L331.9 338c0-6.15-3.62-13.24-8.06-15.8-4.44-2.56-8.07.34-8.07 6.49l-2.64-1.52c0-7.83 4.8-11.43 10.71-8 5.91 3.43 10.7 12.57 10.7 20.4zM348.47 331.06l-2.64-1.53c0-6.15-3.62-13.24-8.06-15.81-4.44-2.57-8.07.35-8.07 6.5l-2.64-1.52c0-7.84 4.81-11.43 10.71-8 5.9 3.43 10.7 12.52 10.7 20.36z"/>
                <path fill="#2F5867" d="M109.47 280.6L88.09 268.33 112.1 254.47 133.47 266.75z" opacity=".4"/>
                <path fill="#EFDA86" d="M112.94 252.43L90.01 239.19 112.94 225.95 135.87 239.19z"/>
                <path fill="#D1B66B" d="M134.32 266.25L112.94 278.59 112.94 253.9 134.32 241.56z"/>
                <path fill="#E2C979" d="M112.94 278.59L91.56 266.25 91.56 241.56 112.94 253.9z"/>
                <path fill="#000" d="M91.56 241.56L91.56 248.02 112.94 260.22 112.94 253.93zM134.32 241.56L134.32 248.48 112.94 260.22 112.94 253.93z" opacity=".1"/>
                <path fill="#E2C979" d="M90.01 239.19L90.01 246.03 112.94 259.09 112.94 252.43z"/>
                <path fill="#D1B66B" d="M112.94 259.09L135.87 246.57 135.87 239.19 112.94 252.43z"/>
                <path fill="#2F5867" d="M389.25 422.32L369.95 411.25 391.67 398.71 410.97 409.79z" opacity=".4"/>
                <path fill="#EFDA86" d="M392.43 396.86L371.73 384.91 392.43 372.96 413.13 384.91z"/>
                <path fill="#D1B66B" d="M411.73 409.34L392.43 420.48 392.43 398.19 411.73 387.05z"/>
                <path fill="#E2C979" d="M392.43 420.48L373.13 409.34 373.13 387.05 392.43 398.19z"/>
                <path fill="#000" d="M373.13 387.05L373.13 392.88 392.43 403.9 392.43 398.22zM411.73 387.05L411.73 393.3 392.43 403.9 392.43 398.22z" opacity=".1"/>
                <path fill="#E2C979" d="M371.73 384.91L371.73 391.09 392.43 402.88 392.43 396.86z"/>
                <path fill="#D1B66B" d="M392.43 402.88L413.13 391.57 413.13 384.91 392.43 396.86z"/>
                <path fill="#2F5867" d="M161.37 313.52L120.28 289.81 125.44 286.82 166.53 310.53z" opacity=".4"/>
                <path fill="#C65555" d="M177.25 304.57L135.99 280.75 141.15 233.71 172.09 251.58z"/>
                <path fill="#FF6C6C" d="M166.53 310.53L125.27 286.71 130.43 239.67 161.37 257.53z"/>
                <path fill="#DD6262" d="M166.53 310.53L177.25 304.57 172.09 251.58 161.37 257.53z"/>
                <path fill="#C65555" d="M130.43 239.67L141.15 233.71 139.9 245.13z"/>
                <path fill="#20232D" d="M153.63 253l-1.9-1.1c0-4.45-2.62-9.57-5.83-11.42-3.21-1.85-5.82.25-5.82 4.69l-1.91-1.1c0-5.65 3.47-8.25 7.73-5.79s7.73 9.02 7.73 14.72zM163.69 246.81l-1.9-1.1c0-4.44-2.62-9.57-5.83-11.42-3.21-1.85-5.82.25-5.82 4.69l-1.91-1.1c0-5.65 3.47-8.25 7.73-5.79s7.73 9.06 7.73 14.72z"/>
                <g transform="translate(0 226)">
                    <ellipse cx="43.6" cy="248.83" fill="#2F5867" opacity=".4" rx="43.6" ry="25.17"/>
                    <path fill="#FFCEA9" d="M11.63 60.29c-.49 4.24-5.54 22.52-4.46 28.78 1.08 6.26 18.35 16.73 18.35 16.73l2.4-10.72-9.57-9.36L20.94 68l-9.31-7.71z"/>
                    <path fill="#EDEDED" d="M25 42.28c-3.477-1.614-7.612-.362-9.61 2.91-2.54 4.2-5.18 18.64-5.42 21.1 0 0 3.57 4.93 8.91 4.1L25 42.28z"/>
                    <path fill="#2B2A30" d="M44.71 246.07c3.756 1.041 7.77.556 11.17-1.35 2.69.08 17.3-6.17 19.29-.92 1.74 4.6-4.58 8.86-8 9.68-7.38 1.79-12.84 5.47-15.8 6.09-2.21.47-5.07.77-6.83-1-2.08-2.05-1.9-9.75.17-12.5z"/>
                    <path fill="#9C73FF" d="M51.4 258.3c3-.63 8.42-4.31 15.8-6.1 2.84-.68 7.72-3.78 8.21-7.48.66 4.24-5 8-8.21 8.76-7.38 1.79-12.84 5.47-15.8 6.09-2.21.47-5.07.77-6.83-1-.468-.503-.81-1.11-1-1.77 2.6 2.2 5.62 1.96 7.83 1.5z"/>
                    <path fill="#2B2A30" d="M21 235.43c3.756 1.041 7.77.556 11.17-1.35 2.69.08 17.3-6.18 19.29-.92 1.74 4.6-4.58 8.86-8 9.68-7.38 1.79-12.84 5.47-15.8 6.09-2.21.47-5.07.77-6.83-1-2.07-2.05-1.89-9.76.17-12.5z"/>
                    <path fill="#9C73FF" d="M27.7 247.65c3-.62 8.42-4.3 15.8-6.09 2.84-.68 7.72-3.79 8.21-7.48.66 4.24-5.05 8-8.21 8.76-7.38 1.79-12.84 5.47-15.8 6.09-2.21.47-5.07.77-6.83-1-.47-.498-.813-1.102-1-1.76 2.6 2.17 5.62 1.95 7.83 1.48z"/>
                    <path fill="#C49A6D" d="M20.72 195.73c.626-5.426 1.754-10.782 3.37-16 0 0-1-13.81-1.51-26.9C22 138 16.85 124.88 20.92 113l45.85 10.2s-2.77 59.26-3.39 66.43c-.336 5.584-1.021 11.141-2.05 16.64-2.1 11.5-5.5 38.86-5.5 38.86-4.85 2.81-11.21 1.25-11.21 1.25s.35-34.59.66-42.88c.38-10.12.69-9.35.69-9.35L44.46 169l-1-12.54s-1.27 9.2-2.09 17.42c-.72 7.17-2.45 13.65-4.39 27-1.67 11.57-4.39 34.83-4.39 34.83-4.85 2.82-11.43.48-11.43.48s-1.76-30.42-.44-40.46z"/>
                    <path fill="#FFCEA9" d="M27.41 42.53c3.49.17 6.09 1.07 6.53 0 .373-1.803.64-3.626.8-5.46-.41-1-.75-2.1-.75-2.1-4.39-2.7-5.77-7.44-6.35-13-1-9.43 4.11-17.68 13.55-18.67 8.86-.92 15.39 5.31 17.13 13.86.94 4.23 2.8 12.21.28 19.16-1.41 3.89-3.23 7-5.05 7.57-1.755-.045-3.505-.198-5.24-.46 0 0-.47 2.62-.79 4.3-.32 1.68-.2 2.57 3.15 4.63s-5.06 6.3-10.56 5.89c-5.5-.41-11.68-3.74-13.37-7.29-1.89-3.88-1.74-8.54.67-8.43z"/>
                    <path fill="#F4F4F4" d="M32.46 43.05c-1 2.41 1.49 5.36 8 7.42 6.51 2.06 7.15-.59 7.15-.59s9.62 4.38 12.75 6.57c3.93 2.75 5.68 10.71 6.21 24.15.61 15.56.67 38.64.15 42.62 0 0-7.36 7.33-16.77 6.56-9.41-.77-25.25-9.11-29.1-15.54.11-13.64 1.71-15.86-.5-23.72-5.06-18-7.72-25.35-5.26-37.3 2-9.85 4.86-11.08 8.75-11 2.886.119 5.764.396 8.62.83z"/>
                    <path fill="#FFCEA9" d="M81.42 93.47c-7.73 1.94-9.54-2.93-10.56-7-2.46-9.77-3.78-18.59-5.61-24.13-2.16-6.54-4.42-7.58-7.6-8.85-3.73-1.5-6.94 1.65-5.69 10 1.46 9.85 3.39 16.76 7.07 28.4 1 3 3.12 8.45 6.35 11.06 4 3.22 10 3.08 19.07.83 3.87-1 8.12-3.28 15.45-6.7 2-.92 3.5-1.53 7.27-3.29 3.77-1.76 7.7-4.69 9.68-7.56 1.98-2.87 1.64-4.68 1.23-5.33-.51-.82-.79-.17-1.85 1-1.528 2.035-3.412 3.776-5.56 5.14 0 0 2.44-2.52 3.77-4.16 1.181-1.453 2.163-3.057 2.92-4.77.7-1.67-.74-3.94-1.84-2.75s-1.61 2.4-3.61 4.8c-1.053 1.276-2.255 2.42-3.58 3.41 1.238-1.677 2.342-3.449 3.3-5.3 1.27-2.59-3-1.24-5.39 1.28-1.77 1.83-3.27 2.89-3.31 2.38-.04-.51-3.49 3.19-5.24 5-1.9 2.12-8.93 4.69-16.27 6.54z"/>
                    <path fill="#EDEDED" d="M54.79 52.19c5.16-.76 8.81 1.56 11.08 9.38 2.27 7.82 3.88 14.23 3.88 14.23-2.041 2.951-5.138 5.006-8.65 5.74-6.17 1.5-8.39-1.45-8.39-1.45S51 71.9 49.93 66.32c-1.07-5.58-1.52-13.18 4.86-14.13z"/>
                    <path fill="#CBA47B" d="M58 16s8.15-12.4-9.51-14.92C35.75-.74 27.57 7.44 26.62 16.32c-.9 8.49 4.32 17.3 8.1 20.79 1.84.66 5.8 1 11-1.33.212-2.31.295-4.63.25-6.95 0 0-6.19-13.06 12.03-12.83z"/>
                </g>
                <path fill="#FFCEA9" d="M99.4 309.73s-2-3.65-.74-4.56c1.26-.91 3.09 2.51 3.46 3.85.37 1.34-.14-.41-.14-.41s-1.37-4.12-.48-4.91c.89-.79 2.09 1 3.28 3.56s.3-.23.3-.23-2-4.13-1.13-4.7c1.13-.77 3 1.68 4.11 3.89 1.11 2.21-1.49 4.82-1.49 4.82l-7.17-1.31z"/>
                <g transform="translate(95 299)">
                    <path fill="#B1B4C4" d="M8.26 17.25L.77 12.92c-.63-.36-.55-1 .18-1.42L19 1.05c.76-.424 1.678-.461 2.47-.1l7.49 4.32c.63.37.55 1-.18 1.43L10.69 17.14c-.748.414-1.647.455-2.43.11z"/>
                    <path fill="#B1B4C4" d="M.34 12.3L.34 11.61 1.15 11.91zM29.42 5.87L29.42 5.21 28.78 5.62z"/>
                    <path fill="#616E84" d="M8.26 16.66L.77 12.34c-.63-.37-.55-1 .18-1.43L19 .47c.76-.424 1.678-.461 2.47-.1l7.49 4.32c.63.37.55 1-.18 1.43L10.69 16.56c-.75.41-1.649.448-2.43.1z"/>
                    <circle cx="1.986" cy="14.351" r="1" fill="#757B89" transform="rotate(-29.887 1.986 14.35)"/>
                    <circle cx="1.963" cy="13.313" r="1" fill="#757B89" transform="rotate(-30 1.963 13.313)"/>
                    <circle cx="2.32" cy="13.525" r="1" fill="#757B89" transform="rotate(-30 2.32 13.525)"/>
                    <circle cx="2.687" cy="13.737" r="1" fill="#757B89" transform="rotate(-30 2.687 13.737)"/>
                    <circle cx="5.778" cy="15.522" r="1" fill="#757B89" transform="rotate(-30 5.778 15.522)"/>
                    <circle cx="6.13" cy="15.726" r="1" fill="#757B89" transform="rotate(-30 6.13 15.726)"/>
                    <circle cx="6.497" cy="15.937" r="1" fill="#757B89" transform="rotate(-30 6.497 15.937)"/>
                    <circle cx="7.258" cy="17.402" r="1" fill="#757B89" transform="rotate(-29.887 7.258 17.402)"/>
                    <path fill="#757B89" d="M4.73 15.06l-1-.57c-.069-.052-.11-.134-.11-.22 0-.08.05-.12.11-.08l1 .57c.068.048.11.126.11.21 0 .09-.05.13-.11.09zM27.16 7.51l-.92.53c-.06 0-.11 0-.11-.08.005-.08.046-.153.11-.2l.92-.53c.06 0 .1 0 .1.08.003.08-.034.155-.1.2zM25.75 8.33l-.92.53c-.06 0-.11 0-.11-.08 0-.081.042-.156.11-.2l.92-.54c.06 0 .1 0 .1.08 0 .082-.037.159-.1.21z"/>
                    <path fill="#20232D" d="M8.26 16.56L.77 12.23c-.63-.36-.55-1 .18-1.42L19 .36c.762-.42 1.677-.456 2.47-.1l7.49 4.32c.63.37.55 1-.18 1.43L10.69 16.45c-.748.414-1.647.455-2.43.11z"/>
                    <path fill="#2B303F" d="M28.19 4.76l-2.92-1.69c-.393.2-.857.2-1.25 0-.154-.052-.258-.197-.258-.36 0-.163.104-.308.258-.36L21.1.66c-.505-.26-1.105-.26-1.61 0L1.87 10.83c-.2.067-.335.254-.335.465 0 .211.135.398.335.465l7.1 4.09c.505.26 1.105.26 1.61 0L28.19 5.68c.203-.06.343-.248.343-.46 0-.212-.14-.4-.343-.46z"/>
                    <path fill="url(#t1iqd0i4ya)" d="M28.19 4.76l-2.92-1.69c-.393.2-.857.2-1.25 0-.154-.052-.258-.197-.258-.36 0-.163.104-.308.258-.36L21.1.66c-.505-.26-1.105-.26-1.61 0L1.87 10.83c-.2.067-.335.254-.335.465 0 .211.135.398.335.465l7.1 4.09c.505.26 1.105.26 1.61 0L28.19 5.68c.203-.06.343-.248.343-.46 0-.212-.14-.4-.343-.46z" opacity=".5"/>
                    <circle cx="24.45" cy="2.82" r="1" fill="#2B303F"/>
                    <path fill="#FFF" d="M24.35 2.88c-.06 0-.06-.08 0-.11.06-.04.14-.04.2 0 .022.01.036.031.036.055s-.014.045-.036.055c-.063.03-.137.03-.2 0z" opacity=".1"/>
                </g>
                <path fill="#FFCEA9" d="M114.9 314.52s4-3.57 3.77-8.3c-.24-3.3-2.23-.92-2.23-.92l-2 3.63s-2 2.59-3.84 3.18c-1.406.135-2.805.342-4.19.62-2.46.48-4.91 3.55-4.91 3.55l3.17 2.43 10.23-4.19z"/>
                <path fill="#D9DAE2" d="M424.67 138.6l-23.5-13.6c-.773-.522-1.745-.655-2.63-.36-.19.078-.369.182-.53.31l-4.31 2.47 3 4.16v22.33c0 3.28 2 7.09 4.46 8.51l20.73 12 .68 4.69c.14-.07 3.71-2.12 4.84-2.78.109-.05.213-.11.31-.18.976-.88 1.477-2.172 1.35-3.48v-25.56c.05-3.28-1.94-7.11-4.4-8.51z"/>
                <path fill="#EFF0F9" d="M419.81 178.81l-23.5-13.57c-2.46-1.42-4.45-5.23-4.45-8.51v-25.55c0-3.28 2-4.78 4.45-3.36l23.5 13.56c2.46 1.42 4.46 5.24 4.46 8.52v25.54c0 3.28-2 4.79-4.46 3.37z"/>
                <path fill="#E26161" d="M398.79 140.75c0-1.44.41-2.37 1.22-2.8.81-.43 1.87-.27 3.18.49 1.326.766 2.432 1.861 3.21 3.18.792 1.294 1.21 2.783 1.21 4.3v1.16c0 1.45-.4 2.38-1.21 2.8-.81.42-1.87.24-3.18-.52-1.328-.763-2.435-1.859-3.21-3.18-.795-1.29-1.217-2.775-1.22-4.29v-1.14zm2.68 2.79c0 .641.165 1.271.48 1.83.29.551.73 1.009 1.27 1.32.52.3.93.34 1.24.12.352-.348.522-.84.46-1.33v-1.19c0-.639-.158-1.267-.46-1.83-.287-.556-.728-1.018-1.27-1.33-.34-.265-.8-.315-1.19-.13-.32.21-.48.66-.48 1.36l-.05 1.18zM404 161l-2-2.36L412 146l2 2.36L404 161zm4.49-1.4c0-1.45.41-2.38 1.23-2.8.82-.42 1.88-.24 3.18.51 1.317.766 2.418 1.853 3.2 3.16.803 1.3 1.226 2.801 1.22 4.33v1.16c0 1.43-.4 2.37-1.2 2.79-.8.42-1.86.25-3.19-.52-1.334-.764-2.444-1.863-3.22-3.19-.788-1.278-1.21-2.748-1.22-4.25v-1.19zm2.68 2.8c.013.636.185 1.258.5 1.81.29.556.725 1.023 1.26 1.35 1.13.66 1.7.26 1.7-1.19v-1.23c0-.637-.162-1.263-.47-1.82-.29-.548-.726-1.005-1.26-1.32-.354-.287-.844-.338-1.25-.13-.372.331-.552.827-.48 1.32v1.21z"/>
                <path fill="#D9DAE2" d="M124.06 67.34l-23.5-13.57c-.773-.522-1.745-.655-2.63-.36-.188.082-.366.186-.53.31l-4.31 2.47 3 4.16v22.33c0 3.28 2 7.09 4.45 8.51l20.73 12 .69 4.7 4.83-2.79c.107-.05.21-.107.31-.17.985-.875 1.49-2.17 1.36-3.48v-25.6c.06-3.28-1.94-7.09-4.4-8.51z"/>
                <path fill="#EFF0F9" d="M119.21 107.55L95.71 94c-2.46-1.42-4.46-5.23-4.46-8.51V59.93c0-3.28 2-4.79 4.46-3.37l23.5 13.57c2.46 1.42 4.45 5.23 4.45 8.51v25.54c0 3.28-1.99 4.82-4.45 3.37z"/>
                <path fill="#F9CB07" d="M107.46 69.99L110.64 79.28 117.77 84.59 112.61 87.42 113.83 96.31 107.46 88.77 101.08 88.95 102.3 81.46 97.14 72.68 104.27 75.6z"/>
            </g>
        </g>
    </g>
</svg>
